<?xml version="1.0" encoding="utf-8"?>
<!-- Generator: Adobe Illustrator 16.0.0, SVG Export Plug-In . SVG Version: 6.00 Build 0)  -->
<!DOCTYPE svg PUBLIC "-//W3C//DTD SVG 1.1//EN" "http://www.w3.org/Graphics/SVG/1.1/DTD/svg11.dtd">
<svg version="1.1" id="Layer_1" xmlns="http://www.w3.org/2000/svg" xmlns:xlink="http://www.w3.org/1999/xlink" x="0px" y="0px"
	 width="152px" height="50px" viewBox="0 0 152 50" enable-background="new 0 0 152 50" xml:space="preserve">
<g>
	<linearGradient id="SVGID_1_" gradientUnits="userSpaceOnUse" x1="10.5952" y1="62.2012" x2="103.3278" y2="-5.0443">
		<stop  offset="0" style="stop-color:#FFFFFF"/>
		<stop  offset="0.2204" style="stop-color:#66CC54"/>
		<stop  offset="0.5968" style="stop-color:#93A889"/>
		<stop  offset="0.8441" style="stop-color:#3E563E"/>
		<stop  offset="1" style="stop-color:#000000"/>
	</linearGradient>
	<path fill="url(#SVGID_1_)" d="M52.794,6.5H92.5v0.65v5.35h3V6.197c0,0-0.438-3.697-3.44-3.697H52.89c0,0-3.39,0.695-3.39,3.745
		V32.5h-4.712c0,0-2.288,0.24-2.288,1.384c0,0.07,0,0.19,0,0.19v0.238v1.334c0,0,0.62,5.854,7.148,6.854H78.5v-4H49.648
		c0,0-2.466,0-3.288-3H78.5v-3H52.89L52.794,6.5z"/>
	<linearGradient id="SVGID_2_" gradientUnits="userSpaceOnUse" x1="23.8853" y1="81.4473" x2="116.9402" y2="13.968">
		<stop  offset="0" style="stop-color:#FFFFFF"/>
		<stop  offset="0.2204" style="stop-color:#66CC54"/>
		<stop  offset="0.5968" style="stop-color:#93A889"/>
		<stop  offset="0.8441" style="stop-color:#3E563E"/>
		<stop  offset="1" style="stop-color:#000000"/>
	</linearGradient>
	<path fill="url(#SVGID_2_)" d="M108.979,28.386c-0.361-1.324-0.881-2.575-1.547-3.72c-0.665-1.144-1.473-2.197-2.402-3.134
		s-1.985-1.749-3.137-2.416c-1.15-0.664-2.403-0.925-3.725-1.298C96.846,17.444,95.444,17.5,94,17.5h-9.721l-0.347-0.266
		c-0.698,0.043-1.433,0.242-1.433,0.979v28.696c0,0.232,0.38,0.428,0.502,0.579c0.093,0.117,0.365,0.213,0.494,0.284
		c0.076,0.042,0.226,0.075,0.292,0.103l0.064,0.26c0.121,0.082,0.313,0.365,0.508,0.365h9.498c1.44,0,2.845-0.426,4.174-0.787
		c1.33-0.359,2.588-1.002,3.739-1.668c1.149-0.665,2.215-1.536,3.164-2.472s1.775-2.021,2.455-3.165
		c0.68-1.146,1.211-2.408,1.578-3.725c0.367-1.319,0.554-2.718,0.554-4.146C109.522,31.112,109.34,29.71,108.979,28.386z M86.5,20.5
		h7.37c1.669,0,3.259,0.28,4.726,0.88c1.467,0.601,2.767,1.433,3.864,2.497c1.097,1.064,1.978,2.334,2.617,3.787
		c0.638,1.448,0.961,3.051,0.961,4.769c0,1.098-0.144,2.172-0.428,3.196c-0.285,1.028-0.691,2-1.207,2.891
		c-0.517,0.89-1.151,1.713-1.888,2.449c-0.736,0.735-1.564,1.374-2.462,1.896c-0.897,0.523-1.885,0.921-2.933,1.212
		c-1.046,0.29-2.153,0.423-3.291,0.423H86.5V20.5z"/>
</g>
</svg>
